<svg width="22" height="19" viewBox="0 0 22 19" fill="none" xmlns="http://www.w3.org/2000/svg">
<path d="M13.332 2.11111L15.345 4.22222H19.8V16.8889H2.2V4.22222H6.655L8.668 2.11111H13.332ZM14.3 0H7.7L5.687 2.11111H2.2C0.99 2.11111 0 3.06111 0 4.22222V16.8889C0 18.05 0.99 19 2.2 19H19.8C21.01 19 22 18.05 22 16.8889V4.22222C22 3.06111 21.01 2.11111 19.8 2.11111H16.313L14.3 0ZM11 7.38889C12.815 7.38889 14.3 8.81389 14.3 10.5556C14.3 12.2972 12.815 13.7222 11 13.7222C9.185 13.7222 7.7 12.2972 7.7 10.5556C7.7 8.81389 9.185 7.38889 11 7.38889ZM11 5.27778C7.964 5.27778 5.5 7.64222 5.5 10.5556C5.5 13.4689 7.964 15.8333 11 15.8333C14.036 15.8333 16.5 13.4689 16.5 10.5556C16.5 7.64222 14.036 5.27778 11 5.27778Z" fill="white"/>
</svg>
