<svg width="60" height="60" viewBox="0 0 60 60" fill="none" xmlns="http://www.w3.org/2000/svg">
<path d="M42.536 4H36V0H24V4H17.464C15.554 4 14 5.554 14 7.464V56.536C14 58.446 15.554 60 17.464 60H42.535C44.446 60 46 58.446 46 56.536V7.464C46 5.554 44.446 4 42.536 4ZM44 56.536C44 57.344 43.343 58 42.536 58H17.464C16.657 58 16 57.344 16 56.536V7.464C16 6.656 16.657 6 17.464 6H24H36H42.536C43.343 6 44 6.656 44 7.464V56.536Z" fill="black"/>
<path d="M37 29H34V17.108C34.013 16.848 33.931 16.593 33.764 16.388C33.383 15.921 32.5 15.925 32.122 16.392C32.096 16.424 32.072 16.458 32.05 16.495L22.15 32.474C21.959 32.783 21.95 33.17 22.127 33.487C22.303 33.804 22.637 34 23 34H27L27.002 46.929H27.003C27.004 47.164 27.08 47.408 27.218 47.586C27.407 47.833 27.747 48 28.058 48C28.363 48 28.694 47.84 28.883 47.602C28.923 47.552 28.957 47.499 28.987 47.443L37.886 30.464C38.049 30.154 38.037 29.782 37.856 29.483C37.675 29.184 37.35 29 37 29Z" fill="black"/>
</svg>
