<svg width="21" height="22" viewBox="0 0 21 22" fill="none" xmlns="http://www.w3.org/2000/svg">
<path d="M20.9445 7.89802C20.8785 7.6944 20.757 7.51548 20.5951 7.38335C20.4331 7.25122 20.2377 7.17167 20.0331 7.15452L14.047 6.65628L11.4566 0.649978C11.3741 0.456527 11.24 0.292219 11.0703 0.176884C10.9006 0.0615492 10.7027 0.000116451 10.5004 1.65394e-07C10.2982 -0.000116121 10.1002 0.061089 9.93038 0.176229C9.76059 0.291369 9.62623 0.455523 9.54353 0.648878L6.95317 6.65628L0.967083 7.15452C0.76596 7.17121 0.573686 7.24824 0.413263 7.37639C0.25284 7.50455 0.131061 7.6784 0.0624958 7.87715C-0.00606943 8.07591 -0.0185178 8.29114 0.0266399 8.49711C0.0717977 8.70308 0.172649 8.89106 0.31713 9.03857L4.74081 13.5557L3.1763 20.6519C3.12879 20.8667 3.14402 21.0915 3.22 21.2971C3.29598 21.5028 3.4292 21.6797 3.60239 21.8051C3.77558 21.9304 3.98073 21.9983 4.19122 22C4.4017 22.0016 4.60782 21.937 4.78281 21.8145L10.5001 17.822L16.2174 21.8145C16.3962 21.9389 16.6072 22.0029 16.8218 21.998C17.0364 21.993 17.2445 21.9194 17.4179 21.7869C17.5914 21.6544 17.722 21.4695 17.7921 21.2569C17.8623 21.0444 17.8686 20.8144 17.8102 20.598L15.8898 13.559L20.6526 9.06936C20.9645 8.7746 21.0789 8.31486 20.9445 7.89802Z" fill="#D0606D"/>
</svg>
