<svg width="28" height="28" viewBox="0 0 28 28" fill="none" xmlns="http://www.w3.org/2000/svg">
<path d="M8.75 16.9167C6.90667 16.9167 5.36317 18.1534 4.85684 19.8334H2.33334V22.1667H4.85684C5.36317 23.8467 6.90667 25.0834 8.75 25.0834C10.5933 25.0834 12.1368 23.8467 12.6432 22.1667H25.6667V19.8334H12.6432C12.1368 18.1534 10.5933 16.9167 8.75 16.9167ZM8.75 22.75C7.78517 22.75 7 21.9649 7 21C7 20.0352 7.78517 19.25 8.75 19.25C9.71484 19.25 10.5 20.0352 10.5 21C10.5 21.9649 9.71484 22.75 8.75 22.75ZM19.25 9.91669C17.4067 9.91669 15.8632 11.1534 15.3568 12.8334H2.33334V15.1667H15.3568C15.8632 16.8467 17.4067 18.0834 19.25 18.0834C21.0933 18.0834 22.6368 16.8467 23.1432 15.1667H25.6667V12.8334H23.1432C22.6368 11.1534 21.0933 9.91669 19.25 9.91669ZM19.25 15.75C18.2852 15.75 17.5 14.9649 17.5 14C17.5 13.0352 18.2852 12.25 19.25 12.25C20.2148 12.25 21 13.0352 21 14C21 14.9649 20.2148 15.75 19.25 15.75Z" fill="#4ECCA3"/>
<path d="M14.9765 5.83335C14.4702 4.15335 12.9267 2.91669 11.0833 2.91669C9.24 2.91669 7.6965 4.15335 7.19017 5.83335H2.33334V8.16669H7.19017C7.6965 9.84669 9.24 11.0834 11.0833 11.0834C12.9267 11.0834 14.4702 9.84669 14.9765 8.16669H25.8125V5.83335H14.9765ZM11.0833 8.75002C10.1185 8.75002 9.33334 7.96485 9.33334 7.00002C9.33334 6.03519 10.1185 5.25002 11.0833 5.25002C12.0482 5.25002 12.8333 6.03519 12.8333 7.00002C12.8333 7.96485 12.0482 8.75002 11.0833 8.75002Z" fill="#4ECCA3"/>
</svg>
