<svg width="22" height="22" viewBox="0 0 22 22" fill="none" xmlns="http://www.w3.org/2000/svg">
<path d="M5.05899 13.5166L3.44482 20.5062C3.39484 20.7179 3.40984 20.9397 3.48788 21.1427C3.56591 21.3457 3.70335 21.5204 3.88224 21.6441C4.06113 21.7677 4.27315 21.8346 4.49062 21.8359C4.70809 21.8372 4.92089 21.7729 5.10124 21.6513L11 17.7188L16.8987 21.6513C17.0833 21.7738 17.3009 21.8369 17.5223 21.8321C17.7438 21.8272 17.9584 21.7547 18.1374 21.6242C18.3164 21.4937 18.4511 21.3115 18.5235 21.1022C18.5958 20.8928 18.6024 20.6663 18.5422 20.4532L16.5607 13.5198L21.4747 9.09766C21.6321 8.95595 21.7445 8.77121 21.798 8.5663C21.8515 8.36138 21.8438 8.14528 21.7758 7.94471C21.7078 7.74415 21.5825 7.56791 21.4154 7.4378C21.2483 7.30769 21.0467 7.22942 20.8356 7.21266L14.6595 6.72083L11.9869 0.804742C11.9017 0.614244 11.7632 0.452481 11.588 0.338974C11.4129 0.225468 11.2087 0.16507 11 0.16507C10.7913 0.16507 10.5871 0.225468 10.4119 0.338974C10.2368 0.452481 10.0983 0.614244 10.0131 0.804742L7.34049 6.72083L1.1644 7.21158C0.956898 7.22802 0.758521 7.30389 0.593006 7.43012C0.427491 7.55635 0.301847 7.72759 0.231105 7.92336C0.160364 8.11913 0.14752 8.33113 0.194111 8.53401C0.240703 8.73688 0.344755 8.92204 0.493821 9.06733L5.05899 13.5166ZM8.14974 8.83008C8.34311 8.81484 8.52882 8.74787 8.6874 8.63618C8.84598 8.52448 8.97159 8.37218 9.05107 8.19524L11 3.88249L12.9489 8.19524C13.0284 8.37218 13.154 8.52448 13.3126 8.63618C13.4712 8.74787 13.6569 8.81484 13.8502 8.83008L18.1532 9.17133L14.6097 12.3607C14.302 12.638 14.1796 13.0648 14.2922 13.4635L15.6497 18.2139L11.6023 15.5153C11.4247 15.3961 11.2156 15.3324 11.0016 15.3324C10.7877 15.3324 10.5786 15.3961 10.4009 15.5153L6.17157 18.3352L7.30907 13.4104C7.35078 13.2293 7.34518 13.0405 7.29282 12.8621C7.24045 12.6838 7.14308 12.5219 7.01007 12.3921L3.7189 9.18324L8.14974 8.83008Z" fill="#D0606D"/>
</svg>
