<svg width="44" height="45" viewBox="0 0 44 45" fill="none" xmlns="http://www.w3.org/2000/svg">
<path d="M14.6667 32.25H13.2C12.795 32.25 12.4667 32.5858 12.4667 33C12.4667 33.4142 12.795 33.75 13.2 33.75H14.6667C15.0717 33.75 15.4 33.4142 15.4 33C15.4 32.5858 15.0717 32.25 14.6667 32.25Z" fill="#979797"/>
<path d="M35.2 32.25H17.6C17.195 32.25 16.8667 32.5858 16.8667 33C16.8667 33.4142 17.195 33.75 17.6 33.75H35.2C35.605 33.75 35.9333 33.4142 35.9333 33C35.9333 32.5858 35.605 32.25 35.2 32.25Z" fill="#979797"/>
<path d="M14.6667 27.75H13.2C12.795 27.75 12.4667 28.0858 12.4667 28.5C12.4667 28.9142 12.795 29.25 13.2 29.25H14.6667C15.0717 29.25 15.4 28.9142 15.4 28.5C15.4 28.0858 15.0717 27.75 14.6667 27.75Z" fill="#979797"/>
<path d="M35.2 27.75H17.6C17.195 27.75 16.8667 28.0858 16.8667 28.5C16.8667 28.9142 17.195 29.25 17.6 29.25H35.2C35.605 29.25 35.9333 28.9142 35.9333 28.5C35.9333 28.0858 35.605 27.75 35.2 27.75Z" fill="#979797"/>
<path d="M14.6667 23.25H13.2C12.795 23.25 12.4667 23.5858 12.4667 24C12.4667 24.4142 12.795 24.75 13.2 24.75H14.6667C15.0717 24.75 15.4 24.4142 15.4 24C15.4 23.5858 15.0717 23.25 14.6667 23.25Z" fill="#979797"/>
<path d="M35.2 23.25H17.6C17.195 23.25 16.8667 23.5858 16.8667 24C16.8667 24.4142 17.195 24.75 17.6 24.75H35.2C35.605 24.75 35.9333 24.4142 35.9333 24C35.9333 23.5858 35.605 23.25 35.2 23.25Z" fill="#979797"/>
<path d="M14.6667 18.7501H13.2C12.795 18.7501 12.4667 19.0859 12.4667 19.5001C12.4667 19.9143 12.795 20.2501 13.2 20.2501H14.6667C15.0717 20.2501 15.4 19.9143 15.4 19.5001C15.4 19.0859 15.0717 18.7501 14.6667 18.7501Z" fill="#979797"/>
<path d="M35.2 18.7501H17.6C17.195 18.7501 16.8667 19.0859 16.8667 19.5001C16.8667 19.9143 17.195 20.2501 17.6 20.2501H35.2C35.605 20.2501 35.9333 19.9143 35.9333 19.5001C35.9333 19.0859 35.605 18.7501 35.2 18.7501Z" fill="#979797"/>
<path d="M14.6667 14.25H13.2C12.795 14.25 12.4667 14.5858 12.4667 15C12.4667 15.4142 12.795 15.75 13.2 15.75H14.6667C15.0717 15.75 15.4 15.4142 15.4 15C15.4 14.5858 15.0717 14.25 14.6667 14.25Z" fill="#979797"/>
<path d="M35.2 14.25H17.6C17.195 14.25 16.8667 14.5858 16.8667 15C16.8667 15.4142 17.195 15.75 17.6 15.75H35.2C35.605 15.75 35.9333 15.4142 35.9333 15C35.9333 14.5858 35.605 14.25 35.2 14.25Z" fill="#979797"/>
<path d="M40.3238 11.2028C40.3201 11.137 40.3076 11.0722 40.2864 11.01C40.2783 10.986 40.2725 10.9628 40.2622 10.9395C40.2265 10.8579 40.1768 10.7835 40.1155 10.7198L29.8489 0.21975C29.7865 0.157031 29.7137 0.106219 29.634 0.06975C29.6113 0.05925 29.5885 0.05325 29.5658 0.045C29.5045 0.0234375 29.4406 0.0103125 29.3759 0.006C29.3634 0.00825 29.3495 0 29.3333 0H8.79999C8.39501 0 8.06666 0.335812 8.06666 0.75V3H4.39999C3.99501 3 3.66666 3.33581 3.66666 3.75V44.25C3.66666 44.6642 3.99501 45 4.39999 45H35.2C35.605 45 35.9333 44.6642 35.9333 44.25V40.5H39.6C40.005 40.5 40.3333 40.1642 40.3333 39.75V11.25C40.3333 11.2335 40.3253 11.2193 40.3238 11.2028ZM30.0667 2.5605L37.8297 10.5H30.0667V2.5605ZM34.4667 43.5H5.13332V4.5H8.06666V39.75C8.06666 40.1642 8.39501 40.5 8.79999 40.5H34.4667V43.5ZM38.8667 39H9.53332V1.5H28.6V11.25C28.6 11.6642 28.9283 12 29.3333 12H38.8667V39Z" fill="#979797"/>
<path d="M17.6 6.75H13.2C12.795 6.75 12.4667 7.08581 12.4667 7.5V12C12.4667 12.4142 12.795 12.75 13.2 12.75H17.6C18.005 12.75 18.3333 12.4142 18.3333 12V7.5C18.3333 7.08581 18.005 6.75 17.6 6.75ZM16.8667 11.25H13.9333V8.25H16.8667V11.25Z" fill="#979797"/>
</svg>
