<svg width="42" height="42" viewBox="0 0 42 42" fill="none" xmlns="http://www.w3.org/2000/svg">
<path d="M39.9596 26.473C39.7152 26.2543 39.3699 26.1927 39.0658 26.3064C37.9464 26.7294 37.0082 26.7243 36.2801 26.2877C35.5333 25.8382 35.1146 24.9862 35.0326 24.3411C35.0018 24.1061 34.8788 23.8934 34.6891 23.7515C34.4993 23.6105 34.2601 23.5515 34.026 23.5882C32.7767 23.7805 31.5001 22.7602 31.5001 21.4375C31.5001 20.9855 31.6419 20.5479 31.9102 20.1728C32.0811 19.9344 32.1205 19.6268 32.018 19.3533C31.9701 19.2303 31.9342 19.1029 31.8607 18.8466C31.7787 18.568 31.5616 18.3484 31.2848 18.2604C30.367 17.9716 29.7501 17.1376 29.7501 16.1874C29.7501 15.2389 30.3654 14.4058 31.2814 14.1153C31.5309 14.0358 31.7326 13.8495 31.8283 13.606C31.9258 13.3625 31.9086 13.0891 31.7822 12.8592C31.5959 12.5183 31.5002 12.1662 31.5002 11.8125C31.5002 10.606 32.4811 9.62497 33.6655 9.62415C33.6672 9.62415 33.8723 9.65409 33.874 9.65491C34.3201 9.69593 34.6875 9.43277 34.8037 9.02516C34.9199 8.61845 34.7284 8.18606 34.349 7.99895C33.0006 7.33589 31.454 7.00005 29.7501 7.00005C27.7404 7.00005 25.9169 7.55032 24.307 8.0357C23.4801 8.28507 22.6908 8.51616 21.9717 8.64462C22.1972 6.64765 23.0207 5.2445 23.796 4.02125C24.0063 3.68796 24.2079 3.36927 24.3857 3.05911C24.625 2.6387 24.478 2.10468 24.0593 1.86539C23.6423 1.62438 23.1057 1.76884 22.8647 2.19097C22.7006 2.4798 22.5126 2.77545 22.3178 3.08479C21.9023 3.74005 21.4482 4.47152 21.0583 5.32325C19.5884 1.81716 16.3442 0 13.1251 0C12.6414 0 12.2501 0.391371 12.2501 0.875027C12.2501 3.51217 12.9456 5.61209 14.3492 7.2021C13.6717 7.08709 12.9777 6.99997 12.2501 6.99997C5.47904 6.99997 1.75006 11.9723 1.75006 21C1.75006 30.5114 8.38606 42 16.625 42C18.1734 42 18.9681 41.6984 19.6072 41.4548C20.0601 41.283 20.4173 41.1472 20.9675 41.1242C21.5828 41.1472 21.9399 41.2831 22.3928 41.4548C23.032 41.6984 23.8266 42 25.375 42C32.5715 42 38.3957 34.448 40.2226 27.3429C40.3031 27.0268 40.2022 26.6909 39.9596 26.473ZM14.0342 1.80986C16.8763 2.18326 19.6534 4.32288 20.0703 8.51082C16.2115 7.4751 14.3095 5.36197 14.0342 1.80986ZM25.3751 40.25C24.148 40.25 23.5977 40.0407 23.0149 39.8194C22.5091 39.6271 21.9348 39.4092 20.9676 39.3759C20.0653 39.4092 19.491 39.6272 18.9852 39.8194C18.4024 40.0407 17.8521 40.25 16.625 40.25C9.55665 40.25 3.50003 29.6655 3.50003 21C3.50003 15.4116 5.01761 8.75003 12.2501 8.75003C14.0018 8.75003 15.6219 9.23877 17.1874 9.71135C18.5323 10.1164 19.8038 10.5001 21.0001 10.5001C22.1964 10.5001 23.4678 10.1164 24.8128 9.71135C26.3782 9.23885 27.9983 8.75003 29.7501 8.75003C30.2201 8.75003 30.673 8.77997 31.1104 8.83805C30.2782 9.56099 29.7501 10.6265 29.7501 11.8125C29.7501 12.1594 29.7979 12.5012 29.8919 12.8362C28.7315 13.5369 28.0001 14.7921 28.0001 16.1875C28.0001 17.6897 28.8477 19.0286 30.1636 19.6892C29.8919 20.2319 29.75 20.8266 29.75 21.4376C29.75 23.5413 31.4094 25.2657 33.4876 25.37C33.7782 26.2279 34.378 27.1857 35.3795 27.7873C35.976 28.1462 36.8851 28.4649 38.1036 28.3368C36.058 34.4156 31.0199 40.25 25.3751 40.25Z" fill="#979797"/>
<path d="M12.25 10.5C11.1717 10.5 7.89213 10.5 6.24297 14.6033C6.06185 15.0519 6.28054 15.5612 6.72835 15.7415C6.83606 15.7842 6.94541 15.8047 7.05476 15.8047C7.40167 15.8047 7.72979 15.5971 7.86654 15.2561C9.07478 12.25 11.2196 12.25 12.2501 12.25C12.7338 12.25 13.1252 11.8586 13.1252 11.3749C13.1251 10.8914 12.7337 10.5 12.25 10.5Z" fill="#979797"/>
</svg>
