<svg width="19" height="46" viewBox="0 0 19 46" fill="none" xmlns="http://www.w3.org/2000/svg">
<path d="M18.3217 13.9323L13.4136 6.14826C13.6041 5.98334 13.7254 5.73753 13.7254 5.46236V0.898759C13.7254 0.402494 13.3316 0 12.8462 0H6.15368C5.66806 0 5.27446 0.402494 5.27446 0.898759V5.46236C5.27446 5.73753 5.39579 5.98349 5.58644 6.14841L0.678336 13.9323C0.586897 14.0776 0.538246 14.2465 0.538246 14.4192V21.2402V31.7599V42.3471C0.538246 44.3614 2.14107 46.0001 4.1114 46.0001C5.18522 46.0001 6.15017 45.5133 6.80577 44.7444C7.46138 45.5133 8.42632 46.0001 9.50014 46.0001C10.574 46.0001 11.5389 45.5133 12.1945 44.7444C12.8501 45.5133 13.8151 46.0001 14.8889 46.0001C16.8591 46.0001 18.462 44.3614 18.462 42.3471V31.7599V21.2402V14.4192C18.4617 14.2464 18.4131 14.0774 18.3217 13.9323ZM7.03276 1.79752H11.9668V4.5636H11.935H7.06499H7.03276V1.79752ZM7.54432 6.36112H11.4557L16.7033 14.6836V20.3415H2.29669V14.6836L7.54432 6.36112ZM16.7033 30.861H2.29669V22.1388H16.7033V30.861ZM14.8886 44.2025C13.8877 44.2025 13.0734 43.3701 13.0734 42.347C13.0734 41.8506 12.6798 41.4482 12.1942 41.4482C11.7087 41.4482 11.315 41.8506 11.315 42.347C11.315 43.3701 10.5007 44.2025 9.49985 44.2025C8.49901 44.2025 7.6847 43.3701 7.6847 42.347C7.6847 41.8506 7.29096 41.4482 6.80548 41.4482C6.31986 41.4482 5.92626 41.8506 5.92626 42.347C5.92626 43.3701 5.11195 44.2025 4.11111 44.2025C3.11041 44.2025 2.29639 43.3701 2.29639 42.347V32.6585H16.703V42.347C16.7033 43.3701 15.8893 44.2025 14.8886 44.2025Z" fill="#979797"/>
</svg>
